<svg viewBox="0 0 40 30" fill="none" xmlns="http://www.w3.org/2000/svg">
<g clip-path="url(#clip0_213_33)">
<path d="M39.2185 15.8388V9.05699C39.2185 9.05469 39.2185 9.05469 39.2185 9.05238C39.2185 7.60095 38.0463 6.42412 36.5995 6.41258C36.5926 6.41258 36.5856 6.41258 36.581 6.41258C36.581 6.41258 36.581 6.41258 36.5787 6.41258C35.7642 6.39874 34.6266 6.21183 33.8189 5.40189C33.1013 4.68425 32.8659 3.48665 32.8036 2.4875L32.8013 2.49211C32.799 2.46904 32.799 2.44365 32.7967 2.42058C32.7944 2.40443 32.7967 2.38827 32.7944 2.37212C32.6583 1.04069 31.5345 0.00230408 30.1685 0.00230408H9.05469C8.96469 0.00230408 8.87701 0.00691911 8.78702 0.0161492C8.75702 0.0184567 8.72702 0.0253792 8.69702 0.0299943C8.64164 0.0369168 8.58626 0.0438394 8.53088 0.0553769C8.49165 0.0622995 8.45473 0.073837 8.41781 0.0830671C8.37166 0.0946047 8.32551 0.103835 8.28167 0.11768C8.24244 0.129217 8.20783 0.143062 8.1686 0.156908C8.12476 0.17306 8.08092 0.186905 8.03707 0.205365C8.00246 0.21921 7.96785 0.237671 7.93324 0.253823C7.88939 0.274591 7.84555 0.293051 7.80171 0.316126C7.7694 0.334586 7.7371 0.353046 7.7071 0.371506C7.66556 0.396889 7.62172 0.419964 7.58019 0.447654C7.54557 0.47073 7.51327 0.496112 7.48096 0.521495C7.44635 0.546878 7.40943 0.57226 7.37482 0.602258C7.31713 0.648408 7.26406 0.699174 7.21329 0.749939C7.20406 0.759169 7.19252 0.768399 7.18329 0.777629C7.17406 0.786859 7.16714 0.796089 7.16022 0.803012C7.10715 0.856085 7.05638 0.911465 7.00792 0.969153C6.98023 1.00146 6.95716 1.03838 6.93177 1.07068C6.90639 1.1053 6.8787 1.13991 6.85563 1.17452C6.83024 1.21375 6.80717 1.25528 6.78179 1.29451C6.76102 1.32913 6.74025 1.36143 6.72179 1.39604C6.70102 1.43758 6.68256 1.47911 6.6618 1.52065C6.64333 1.55757 6.62718 1.59449 6.61103 1.63141C6.59488 1.67064 6.58103 1.71217 6.56719 1.75371C6.55334 1.79524 6.53719 1.83447 6.52334 1.87601C6.51181 1.91754 6.50258 1.95908 6.49104 1.9983C6.4795 2.03984 6.46796 2.08368 6.46104 2.12522C6.45181 2.17368 6.4472 2.21983 6.44027 2.26828C6.43566 2.3052 6.42643 2.34212 6.42412 2.38135C6.41951 2.41827 6.41951 2.45519 6.4172 2.49211L6.41489 2.48981C6.3549 3.48665 6.11722 4.68656 5.39958 5.4042C4.58965 6.21413 3.45435 6.40104 2.6398 6.41489C2.6398 6.41489 2.6398 6.41489 2.63749 6.41489C2.63057 6.41489 2.62595 6.41489 2.61903 6.41489C2.53827 6.41489 2.4575 6.4195 2.37905 6.42643C2.33982 6.43104 2.30059 6.43796 2.26136 6.44489C2.21521 6.45181 2.16906 6.45642 2.12522 6.46565C2.07907 6.47488 2.03523 6.48642 1.99139 6.49796C1.95216 6.50719 1.91293 6.51642 1.8737 6.52796C1.82986 6.5418 1.78832 6.55795 1.74448 6.5718C1.70525 6.58564 1.66603 6.59718 1.62911 6.61333C1.58988 6.62949 1.55065 6.65025 1.51142 6.66871C1.47219 6.68717 1.43297 6.70333 1.39374 6.7241C1.35682 6.74486 1.3199 6.76794 1.28298 6.78871C1.24606 6.81178 1.20914 6.83255 1.17222 6.85562C1.13068 6.88331 1.09376 6.91331 1.05453 6.94331C1.02454 6.96638 0.994539 6.98715 0.966849 7.01023C0.830705 7.12099 0.708407 7.24559 0.597646 7.37943C0.574571 7.40712 0.553804 7.43943 0.530728 7.46712C0.500731 7.50634 0.470733 7.54557 0.443043 7.58711C0.41766 7.62403 0.396893 7.66095 0.376125 7.69787C0.355357 7.73479 0.332282 7.7694 0.311514 7.80863C0.290747 7.84555 0.274594 7.88478 0.256134 7.924C0.237674 7.96323 0.219214 8.00246 0.200754 8.04169C0.184601 8.08091 0.173064 8.11783 0.159219 8.15706C0.143066 8.2009 0.126913 8.24244 0.115376 8.28628C0.103838 8.32551 0.0946081 8.36474 0.0853781 8.40397C0.0738405 8.44781 0.0623029 8.49165 0.0530728 8.5378C0.0438428 8.58395 0.0392277 8.6301 0.0323052 8.67395C0.0276902 8.71317 0.0184601 8.7524 0.0161526 8.79163C0.00461503 8.87701 0 8.96469 0 9.05238V15.8342C0 15.8365 0 15.8365 0 15.8388C0 17.2902 1.17222 18.467 2.61903 18.4786C2.62595 18.4786 2.63287 18.4786 2.63749 18.4786C3.45204 18.4924 4.58965 18.6793 5.39728 19.4893C6.10107 20.1931 6.34105 21.356 6.40797 22.3414V29.0908C6.40797 29.9469 7.48558 30.3231 8.01861 29.6562L11.8329 24.8865H30.1592C30.1615 24.8865 30.1615 24.8865 30.1638 24.8865C31.5714 24.8865 32.7183 23.7836 32.7967 22.3967L32.799 22.4014C32.859 21.4045 33.0967 20.2046 33.8143 19.487C34.6243 18.677 35.7596 18.4901 36.5741 18.4763C36.5741 18.4763 36.5741 18.4763 36.5764 18.4763C36.5833 18.4763 36.5903 18.4763 36.5949 18.4763C36.6664 18.4763 36.7379 18.4717 36.8095 18.4647C36.821 18.4647 36.8349 18.4647 36.8464 18.4624C38.1778 18.3309 39.2185 17.2071 39.2185 15.8388ZM32.9282 18.6009C32.1068 19.4223 30.9415 19.6023 30.1223 19.6116H9.09622C8.27706 19.6023 7.10945 19.4247 6.29029 18.6009C5.62341 17.934 5.36728 16.7756 5.27959 15.7511V9.14237C5.36497 8.11783 5.62111 6.95715 6.29029 6.29028C7.11176 5.46881 8.27706 5.28882 9.09622 5.27959H30.1223C30.9415 5.28882 32.1091 5.4665 32.9282 6.29028C33.5974 6.95946 33.8512 8.11553 33.9389 9.14006V15.7442C33.8536 16.7733 33.5974 17.9317 32.9282 18.6009Z" fill="white"/>
<path d="M13.7643 8.4455C12.306 8.4455 11.1245 9.62694 11.1245 11.0853V13.7251C11.1245 15.1834 12.306 16.3649 13.7643 16.3649C15.2227 16.3649 16.4041 15.1834 16.4041 13.7251V11.0853C16.4041 9.62694 15.2227 8.4455 13.7643 8.4455Z" fill="white"/>
<path d="M25.4542 8.4455C23.9958 8.4455 22.8144 9.62694 22.8144 11.0853V13.7251C22.8144 15.1834 23.9958 16.3649 25.4542 16.3649C26.9125 16.3649 28.094 15.1834 28.094 13.7251V11.0853C28.094 9.62694 26.9125 8.4455 25.4542 8.4455Z" fill="white"/>
</g>
<defs>
<clipPath id="clip0_213_33">
<rect width="39.22" height="30" fill="white"/>
</clipPath>
</defs>
</svg>
